<svg width="28" height="28" viewBox="0 0 28 28" fill="none" xmlns="http://www.w3.org/2000/svg">
<path fill-rule="evenodd" clip-rule="evenodd" d="M14 0C6.272 0 0 6.272 0 14C0 21.728 6.272 28 14 28C21.728 28 28 21.728 28 14C28 6.272 21.728 0 14 0ZM22.764 17.584C22.764 20.44 20.44 22.764 17.584 22.764H10.416C7.56 22.764 5.236 20.44 5.236 17.584V10.416C5.236 7.56 7.56 5.236 10.416 5.236H17.584C20.44 5.236 22.764 7.56 22.764 10.416V17.584ZM17.5832 6.91615H10.4152C8.48323 6.91615 6.91523 8.48415 6.91523 10.4161V17.5841C6.91523 19.5161 8.48323 21.0841 10.4152 21.0841H17.5832C19.5152 21.0841 21.0832 19.5161 21.0832 17.5841V10.4161C21.0552 8.48415 19.4872 6.91615 17.5832 6.91615ZM13.9992 18.7041C11.5072 18.7041 9.49124 16.6881 9.49124 14.1961C9.49124 11.7041 11.5072 9.68814 13.9992 9.68814C16.4912 9.68814 18.5072 11.7041 18.5072 14.1961C18.5072 16.6881 16.4912 18.7041 13.9992 18.7041ZM18.5072 10.3321C17.9192 10.3321 17.4432 9.85614 17.4432 9.26814C17.4432 8.68015 17.9192 8.20415 18.5072 8.20415C19.0952 8.20415 19.5712 8.68015 19.5712 9.26814C19.5712 9.85614 19.0952 10.3321 18.5072 10.3321ZM16.7986 14.1969C16.7986 15.7433 15.545 16.9969 13.9986 16.9969C12.4522 16.9969 11.1986 15.7433 11.1986 14.1969C11.1986 12.6505 12.4522 11.3969 13.9986 11.3969C15.545 11.3969 16.7986 12.6505 16.7986 14.1969Z" fill="#6C60A9"/>
</svg>
