<svg width="28" height="28" viewBox="0 0 28 28" fill="none" xmlns="http://www.w3.org/2000/svg">
<path d="M14 0C6.272 0 0 6.272 0 14C0 16.968 0.924001 19.712 2.492 21.98L1.036 27.104L6.328 25.704C8.54 27.16 11.172 28 14 28C21.728 28 28 21.728 28 14C28 6.272 21.728 0 14 0ZM22.512 18.508C22.064 21.42 19.348 22.484 16.996 21.784C12.04 20.328 8.456 17.192 6.104 12.628C5.516 11.508 5.32 10.248 5.572 8.96C5.796 7.812 6.496 6.944 7.364 6.216C7.7 5.936 8.092 5.852 8.596 5.88C9.352 5.852 9.744 6.104 10.024 7.056C10.304 8.036 10.808 8.932 11.228 9.884C11.396 10.304 11.368 10.64 11.06 10.948C10.696 11.34 10.332 11.788 9.968 12.18C9.744 12.432 9.716 12.656 9.884 12.964C11.256 15.4 13.272 17.052 15.876 18.032C16.184 18.144 16.352 18.004 16.52 17.808C16.912 17.276 17.332 16.772 17.724 16.24C18.004 15.82 18.34 15.764 18.788 15.988C19.852 16.492 20.944 16.996 22.036 17.5C22.54 17.752 22.596 17.92 22.512 18.508Z" fill="#6C60A9"/>
</svg>
